# xmcd CD database file
#
# Track frame offsets:
#	150
#	12624
#	28705
#	42958
#	54878
#	66130
#	75130
#	96188
#	108542
#	123049
#	136832
#	149527
#	164559
#	175536
#	189730
#	200355
#
# Disc length: 2819 seconds
#
# Revision: 0
# Processed by: cddbd v1.5.2PL0 Copyright (c) Steve Scherf et al.
# Submitted via: CDex 1.50beta10
#
DISCID=d20b0110
DTITLE=Muschalle, Frank - Battin' the Boogie
DYEAR=1996
DGENRE=Jazz
TTITLE0=Boogie woogie plunger
TTITLE1=Cow cow blues
TTITLE2=Katies blues
TTITLE3=Groovy stomp
TTITLE4=Arosa crawl
TTITLE5=Battin'the boogie
TTITLE6=Cooney Vaughn's tremblin' blues
TTITLE7=Teegee jive
TTITLE8=Bass goin' crazy
TTITLE9=Boogie woogie jamboree
TTITLE10=In the dust of the evening
TTITLE11=Slum gullion stomp
TTITLE12=The scarlet runner
TTITLE13=Sheffield in the morning
TTITLE14=Killer Miller
TTITLE15=Glad tidings
EXTD=
EXTT0=
EXTT1=
EXTT2=
EXTT3=
EXTT4=
EXTT5=
EXTT6=
EXTT7=
EXTT8=
EXTT9=
EXTT10=
EXTT11=
EXTT12=
EXTT13=
EXTT14=
EXTT15=
PLAYORDER=
